# xmcd CD database file
#
# Track frame offsets:
#	200
#	14462
#	32355
#	44645
#	61602
#	75557
#	91582
#	102797
#	114785
#	129037
#	142867
#	156755
#
# Disc length: 2274 seconds
#
# Revision: 0
# Processed by: cddbd v1.5PL3 Copyright (c) Steve Scherf et al.
# Submitted via: CDex 1.60beta1
#
DISCID=7908e00c
DTITLE=James P. Johnson and Coleman Hawkins - James P. Johnson and Coleman Hawkins
DYEAR=1995
DGENRE=Jazz
TTITLE0=Hot Harlem
TTITLE1=The Dream
TTITLE2=Euphonic Sounds
TTITLE3=Four O'Clock Groove
TTITLE4=Hesitation Blues
TTITLE5=The Boogie Dream
TTITLE6=Night Ramble
TTITLE7=Leave My Heart Alone
TTITLE8=Bean Stalkin' 
TTITLE9=Sportsman's Hop
TTITLE10=Ready for Love
TTITLE11=Ladies Lullaby
EXTD=YEAR: 1995
EXTT0=
EXTT1=
EXTT2=
EXTT3=
EXTT4=
EXTT5=
EXTT6=
EXTT7=
EXTT8=
EXTT9=
EXTT10=
EXTT11=
PLAYORDER=
